<svg width="40" height="40" viewBox="0 0 40 40" fill="none" xmlns="http://www.w3.org/2000/svg">
<path d="M4.25885 10.0861L19.4744 0.0809581C19.7984 -0.132139 20.2295 0.100325 20.2295 0.488182C20.2295 0.652371 20.1502 0.803273 20.0129 0.893294C14.8456 4.28105 4.98375 10.631 4.25885 11.1469C2.76825 12.2076 1.06457 13.6927 1.06466 15.1778V35.3326C1.06471 36.3934 3.19414 38.9392 4.2588 38.9392H5.0715C6.85718 38.9392 8.30475 37.4917 8.30475 35.706V19.5779C8.30475 17.7923 9.75233 16.3447 11.538 16.3447H16.9963C18.7819 16.3447 20.2295 17.7923 20.2295 19.5779V36.7668C20.2295 38.5524 18.7865 40 17.0008 40H4.25885C2.55531 40 0 36.8177 0 35.3326V15.1778C0 12.6604 3.08767 10.9347 4.25885 10.0861Z" fill="#D9D9D9" fill-opacity="0.8"/>
<path d="M35.3483 10.0861L20.1328 0.0809581C19.8087 -0.132139 19.3777 0.100325 19.3777 0.488182C19.3777 0.652371 19.4569 0.803273 19.5942 0.893294C24.7616 4.28105 34.6234 10.631 35.3483 11.1469C36.8389 12.2076 38.5426 13.6927 38.5425 15.1778V35.3326C38.5425 36.3934 36.413 38.9392 35.3484 38.9392H34.5357C32.75 38.9392 31.3024 37.4917 31.3024 35.706V19.5779C31.3024 17.7923 29.8548 16.3447 28.0692 16.3447H21.9721C20.1864 16.3447 18.7388 17.7923 18.7388 19.5779V36.7668C18.7388 38.5524 20.182 40 21.9677 40L35.3483 40C37.0519 40 39.6072 36.8177 39.6072 35.3326V15.1778C39.6072 12.6604 36.5195 10.9347 35.3483 10.0861Z" fill="#D9D9D9" fill-opacity="0.8"/>
<path d="M12.1245 16.3486H26.6741V40H12.1245V16.3486Z" fill="#D9D9D9" fill-opacity="0.8"/>
</svg>
