<svg width="236" height="52" viewBox="0 0 236 52" fill="none" xmlns="http://www.w3.org/2000/svg">
<path fill-rule="evenodd" clip-rule="evenodd" d="M217.158 0H214.263L213.21 1.05263V5.26316L215.316 6.84211H217.158H219L221.105 5.26316V1.05263L220.053 0H217.158Z" fill="#D9D9D9" fill-opacity="0.8"/>
<path fill-rule="evenodd" clip-rule="evenodd" d="M217.158 7.36841H215.316L214.526 8.42104V14.4737H211.368V18.421L212.684 19.4737H214.526V23.421L216.105 24.7368H217.158H218.21L219.789 23.421V19.4737H221.631L222.947 18.421V14.4737H219.789L219.786 8.41951L219 7.36841H217.158Z" fill="#D9D9D9" fill-opacity="0.8"/>
<path d="M221.554 5.44595L219.384 7.03559L220.198 8.21689V13.924H223.724V10.8101L226.979 8.09535V5.18101L224.537 2.53162H221.554V5.44595Z" fill="#D9D9D9" fill-opacity="0.8"/>
<path d="M212.653 5.44595L214.823 7.03559L214.009 8.21689V13.924H210.483V10.8101L207.228 8.09535V5.18101L209.669 2.53162H212.653V5.44595Z" fill="#D9D9D9" fill-opacity="0.8"/>
<path d="M199 5.06323H206.595V10.3351L204.064 12.971V21.9332L205.076 22.724V27.2151L201.026 27.2051L199.76 25.6235V15.607L200.519 14.5526V10.3351H199V5.06323Z" fill="#D9D9D9" fill-opacity="0.8"/>
<path d="M235.076 5.06323H227.481V10.3351L230.013 12.971V21.9332L229 22.724V27.2151L233.051 27.2051L234.316 25.6235V15.607L233.557 14.5526V10.3351H235.076V5.06323Z" fill="#D9D9D9" fill-opacity="0.8"/>
<path d="M222.978 20.2532H220.604V28.3422L221.923 29.386V30.9516L220.868 31.7344V41.1282L222.187 42.6938V44.2594L220.868 45.825V46.8688L218.758 48.4344V50H228.252V47.9125L226.406 46.3469V45.3032L225.615 44.2594V42.6938L227.461 41.1282V34.3438L225.615 32.7782V30.1688L226.67 29.1251V22.0798H222.978L222.978 20.2532Z" fill="#D9D9D9" fill-opacity="0.8"/>
<path d="M211.553 20.2532H213.926V28.3422L212.607 29.386V30.9516L213.662 31.7344V41.1281L212.344 42.6938V44.2594L213.662 45.825V46.8688L215.772 48.4344V50H206.278V47.9125L208.124 46.3469V45.3031L208.915 44.2594V42.6938L207.069 41.1281V34.3438L208.915 32.7781V30.1688L207.861 29.125V22.0797H211.553L211.553 20.2532Z" fill="#D9D9D9" fill-opacity="0.8"/>
<path d="M1.17529 50.3492V23.5898H9.00919L15.8348 38.1717L22.6603 23.5898H30.4942V50.3492H23.7462V35.9224L18.5495 47.0528H13.12L7.9233 35.9224V50.3492H1.17529Z" fill="#2B3328"/>
<path d="M35.8503 43.8339V36.2327C35.8503 31.8891 38.0221 29.7173 42.3657 29.7173H47.4073C51.7508 29.7173 53.9226 31.8891 53.9226 36.2327V42.3989H42.3269V44.2217C42.3269 44.5578 42.4949 44.7259 42.831 44.7259H53.147V48.3325L50.4323 50.3492H42.3657C38.0221 50.3492 35.8503 48.1774 35.8503 43.8339ZM42.3269 37.5125H47.4461V35.8448C47.4461 35.5087 47.278 35.3407 46.9419 35.3407H42.831C42.4949 35.3407 42.3269 35.5087 42.3269 35.8448V37.5125Z" fill="#2B3328"/>
<path d="M58.574 43.8339V36.2327C58.574 31.8891 60.7458 29.7173 65.0893 29.7173H72.1088L74.8235 31.734V35.3407H65.5547C65.2186 35.3407 65.0505 35.5087 65.0505 35.8448V44.2217C65.0505 44.5578 65.2186 44.7259 65.5547 44.7259H74.8235V48.3325L72.1088 50.3492H65.0893C60.7458 50.3492 58.574 48.1774 58.574 43.8339Z" fill="#2B3328"/>
<path d="M79.2598 50.3492V21.6508H85.7363V29.7173H90.8167C95.1602 29.7173 97.332 31.8891 97.332 36.2327V50.3492H90.8555V35.8448C90.8555 35.5087 90.6874 35.3407 90.3513 35.3407H85.7363V50.3492H79.2598Z" fill="#2B3328"/>
<path d="M112.142 50.3492V23.5898H118.89V50.3492H112.142Z" fill="#2B3328"/>
<path d="M124.556 50.3492V29.7173H136.112C140.456 29.7173 142.628 31.8891 142.628 36.2327V50.3492H136.151V35.8448C136.151 35.5087 135.983 35.3407 135.647 35.3407H131.032V50.3492H124.556Z" fill="#2B3328"/>
<path d="M147.423 43.8339V36.2327C147.423 31.8891 149.595 29.7173 153.939 29.7173H159.019V21.6508H165.496V50.3492H153.939C149.595 50.3492 147.423 48.1774 147.423 43.8339ZM153.9 44.2217C153.9 44.5578 154.068 44.7259 154.404 44.7259H159.019V35.3407H154.404C154.068 35.3407 153.9 35.5087 153.9 35.8448V44.2217Z" fill="#2B3328"/>
<path d="M170.45 43.8339V36.2327C170.45 31.8891 172.622 29.7173 176.965 29.7173H182.007C186.35 29.7173 188.522 31.8891 188.522 36.2327V42.3989H176.927V44.2217C176.927 44.5578 177.095 44.7259 177.431 44.7259H187.747V48.3325L185.032 50.3492H176.965C172.622 50.3492 170.45 48.1774 170.45 43.8339ZM176.927 37.5125H182.046V35.8448C182.046 35.5087 181.878 35.3407 181.542 35.3407H177.431C177.095 35.3407 176.927 35.5087 176.927 35.8448V37.5125Z" fill="#2B3328"/>
<path d="M191.894 49.3021L198.37 39.9557L192.049 30.7644L192.553 29.7173H198.526L201.977 35.0692L205.429 29.7173H211.401L211.905 30.7644L205.584 39.9557L212.06 49.3021L211.556 50.3492H205.584L201.977 44.881L198.37 50.3492H192.398L191.894 49.3021Z" fill="#2B3328"/>
<path d="M1.17529 50.3492V23.5898H9.00919L15.8348 38.1717L22.6603 23.5898H30.4942V50.3492H23.7462V35.9224L18.5495 47.0528H13.12L7.9233 35.9224V50.3492H1.17529Z" stroke="#899D82" stroke-opacity="0.4" stroke-width="2"/>
<path d="M35.8503 43.8339V36.2327C35.8503 31.8891 38.0221 29.7173 42.3657 29.7173H47.4073C51.7508 29.7173 53.9226 31.8891 53.9226 36.2327V42.3989H42.3269V44.2217C42.3269 44.5578 42.4949 44.7259 42.831 44.7259H53.147V48.3325L50.4323 50.3492H42.3657C38.0221 50.3492 35.8503 48.1774 35.8503 43.8339ZM42.3269 37.5125H47.4461V35.8448C47.4461 35.5087 47.278 35.3407 46.9419 35.3407H42.831C42.4949 35.3407 42.3269 35.5087 42.3269 35.8448V37.5125Z" stroke="#899D82" stroke-opacity="0.4" stroke-width="2"/>
<path d="M58.574 43.8339V36.2327C58.574 31.8891 60.7458 29.7173 65.0893 29.7173H72.1088L74.8235 31.734V35.3407H65.5547C65.2186 35.3407 65.0505 35.5087 65.0505 35.8448V44.2217C65.0505 44.5578 65.2186 44.7259 65.5547 44.7259H74.8235V48.3325L72.1088 50.3492H65.0893C60.7458 50.3492 58.574 48.1774 58.574 43.8339Z" stroke="#899D82" stroke-opacity="0.4" stroke-width="2"/>
<path d="M79.2598 50.3492V21.6508H85.7363V29.7173H90.8167C95.1602 29.7173 97.332 31.8891 97.332 36.2327V50.3492H90.8555V35.8448C90.8555 35.5087 90.6874 35.3407 90.3513 35.3407H85.7363V50.3492H79.2598Z" stroke="#899D82" stroke-opacity="0.4" stroke-width="2"/>
<path d="M112.142 50.3492V23.5898H118.89V50.3492H112.142Z" stroke="#899D82" stroke-opacity="0.4" stroke-width="2"/>
<path d="M124.556 50.3492V29.7173H136.112C140.456 29.7173 142.628 31.8891 142.628 36.2327V50.3492H136.151V35.8448C136.151 35.5087 135.983 35.3407 135.647 35.3407H131.032V50.3492H124.556Z" stroke="#899D82" stroke-opacity="0.4" stroke-width="2"/>
<path d="M147.423 43.8339V36.2327C147.423 31.8891 149.595 29.7173 153.939 29.7173H159.019V21.6508H165.496V50.3492H153.939C149.595 50.3492 147.423 48.1774 147.423 43.8339ZM153.9 44.2217C153.9 44.5578 154.068 44.7259 154.404 44.7259H159.019V35.3407H154.404C154.068 35.3407 153.9 35.5087 153.9 35.8448V44.2217Z" stroke="#899D82" stroke-opacity="0.4" stroke-width="2"/>
<path d="M170.45 43.8339V36.2327C170.45 31.8891 172.622 29.7173 176.965 29.7173H182.007C186.35 29.7173 188.522 31.8891 188.522 36.2327V42.3989H176.927V44.2217C176.927 44.5578 177.095 44.7259 177.431 44.7259H187.747V48.3325L185.032 50.3492H176.965C172.622 50.3492 170.45 48.1774 170.45 43.8339ZM176.927 37.5125H182.046V35.8448C182.046 35.5087 181.878 35.3407 181.542 35.3407H177.431C177.095 35.3407 176.927 35.5087 176.927 35.8448V37.5125Z" stroke="#899D82" stroke-opacity="0.4" stroke-width="2"/>
<path d="M191.894 49.3021L198.37 39.9557L192.049 30.7644L192.553 29.7173H198.526L201.977 35.0692L205.429 29.7173H211.401L211.905 30.7644L205.584 39.9557L212.06 49.3021L211.556 50.3492H205.584L201.977 44.881L198.37 50.3492H192.398L191.894 49.3021Z" stroke="#899D82" stroke-opacity="0.4" stroke-width="2"/>
<path d="M7.81745 47.7456L8.31745 47.7456L8.31745 46.7456L7.81745 46.7456L7.81745 47.7456ZM1 47.7456L7.81745 47.7456L7.81745 46.7456L1 46.7456L1 47.7456Z" fill="#899D82" fill-opacity="0.5"/>
<path d="M30.3984 47.7481L30.8984 47.748L30.8984 46.748L30.3984 46.7481L30.3984 47.7481ZM23.5615 47.7483L30.3984 47.7481L30.3984 46.7481L23.5615 46.7483L23.5615 47.7483Z" fill="#899D82" fill-opacity="0.5"/>
<path d="M36.356 47.2454H53.4819" stroke="#899D82" stroke-opacity="0.5" stroke-linecap="round"/>
<path d="M58.9136 47.2454L75.1401 47.2454" stroke="#899D82" stroke-opacity="0.5" stroke-linecap="round"/>
<path d="M85.6239 47.7454L86.1239 47.7454L86.1239 46.7454L85.6239 46.7454L85.6239 47.7454ZM79.1104 47.7454L85.6239 47.7454L85.6239 46.7454L79.1104 46.7454L79.1104 47.7454Z" fill="#899D82" fill-opacity="0.5"/>
<path d="M97.2343 47.7454L97.7343 47.7454L97.7343 46.7454L97.2343 46.7454L97.2343 47.7454ZM90.6943 47.7454L97.2343 47.7454L97.2343 46.7454L90.6943 46.7454L90.6943 47.7454Z" fill="#899D82" fill-opacity="0.5"/>
<path d="M118.783 47.7454L119.283 47.7454L119.283 46.7454L118.783 46.7454L118.783 47.7454ZM111.961 47.7454L118.783 47.7454L118.783 46.7454L111.961 46.7454L111.961 47.7454Z" fill="#899D82" fill-opacity="0.5"/>
<path d="M130.945 47.7454L131.445 47.7454L131.445 46.7454L130.945 46.7454L130.945 47.7454ZM124.393 47.7454L130.945 47.7454L130.945 46.7454L124.393 46.7454L124.393 47.7454Z" fill="#899D82" fill-opacity="0.5"/>
<path d="M142.546 47.7454L143.046 47.7454L143.046 46.7454L142.546 46.7454L142.546 47.7454ZM135.98 47.7454L142.546 47.7454L142.546 46.7454L135.98 46.7454L135.98 47.7454Z" fill="#899D82" fill-opacity="0.5"/>
<path d="M147.623 46.7454C147.347 46.7454 147.123 46.9692 147.123 47.2454C147.123 47.5215 147.347 47.7454 147.623 47.7454L147.623 46.7454ZM165.388 47.7454L165.888 47.7454L165.888 46.7454L165.388 46.7454L165.388 47.7454ZM147.623 47.7454L165.388 47.7454L165.388 46.7454L147.623 46.7454L147.623 47.7454Z" fill="#899D82" fill-opacity="0.5"/>
<path d="M170.769 47.2454L188.034 47.2454" stroke="#899D82" stroke-opacity="0.5" stroke-linecap="round"/>
<path d="M192.843 47.2454L200.984 47.2454" stroke="#899D82" stroke-opacity="0.5" stroke-linecap="round"/>
<path d="M202.966 47.2454H211.11" stroke="#899D82" stroke-opacity="0.5" stroke-linecap="round"/>
</svg>
