<svg width="257" height="75" viewBox="0 0 257 75" fill="none" xmlns="http://www.w3.org/2000/svg">
<path fill-rule="evenodd" clip-rule="evenodd" d="M229.236 0H224.894L223.315 1.57895V7.89474L226.473 10.2632H229.236H232L235.158 7.89474V1.57895L233.579 0H229.236Z" fill="#D9D9D9"/>
<path fill-rule="evenodd" clip-rule="evenodd" d="M229.237 11.0527H226.474L225.29 12.6317V21.7106H220.553V27.6317L222.526 29.2106H225.29V35.1317L227.658 37.1054H229.237H230.816L233.184 35.1317V29.2106H235.947L237.921 27.6317V21.7106H233.184L233.18 12.6294L232 11.0527H229.237Z" fill="#D9D9D9"/>
<path d="M235.831 8.16887L232.576 10.5533L233.796 12.3253V20.886H239.086V16.2151L243.968 12.143V7.77146L240.306 3.79736H235.831V8.16887Z" fill="#D9D9D9"/>
<path d="M222.479 8.16899L225.734 10.5534L224.513 12.3254V20.8861H219.224V16.2152L214.341 12.1431V7.77158L218.003 3.79749H222.479V8.16899Z" fill="#D9D9D9"/>
<path d="M202 7.59485H213.393V15.5027L209.595 19.4566V32.8998L211.114 34.086V40.8227L205.038 40.8077L203.139 38.4353V23.4105L204.279 21.8289V15.5027H202V7.59485Z" fill="#D9D9D9"/>
<path d="M256.114 7.59485H244.722V15.5027L248.519 19.4566V32.8998L247 34.086V40.8227L253.076 40.8077L254.975 38.4353V23.4105L253.836 21.8289V15.5027H256.114V7.59485Z" fill="#D9D9D9"/>
<path d="M237.966 30.3798H234.406V42.5133L236.384 44.079V46.4274L234.802 47.6016V61.6922L236.78 64.0407V66.3891L234.802 68.7375V70.3031L231.637 72.6516V75H245.878V71.8688L243.109 69.5204V67.9547L241.922 66.3891V64.0407L244.691 61.6922V51.5157L241.922 49.1673V45.2532L243.504 43.6876V33.1196H237.966L237.966 30.3798Z" fill="#D9D9D9"/>
<path d="M220.829 30.3798H224.389V42.5134L222.411 44.0789V46.4274L223.994 47.6016V61.6922L222.016 64.0407V66.3891L223.994 68.7375V70.3031L227.158 72.6516V75H212.918V71.8688L215.687 69.5203V67.9547L216.873 66.3891V64.0407L214.104 61.6922V51.5157L216.873 49.1672V45.2532L215.291 43.6875V33.1196H220.829L220.829 30.3798Z" fill="#D9D9D9"/>
<path d="M1.81104 67.3492V40.5898H9.64493L16.4705 55.1717L23.2961 40.5898H31.13V67.3492H24.382V52.9224L19.1852 64.0528H13.7558L8.55905 52.9224V67.3492H1.81104Z" fill="#2B3328"/>
<path d="M36.4861 60.8339V53.2327C36.4861 48.8891 38.6579 46.7173 43.0014 46.7173H48.043C52.3866 46.7173 54.5584 48.8891 54.5584 53.2327V59.3989H42.9626V61.2217C42.9626 61.5578 43.1307 61.7259 43.4668 61.7259H53.7827V65.3325L51.068 67.3492H43.0014C38.6579 67.3492 36.4861 65.1774 36.4861 60.8339ZM42.9626 54.5125H48.0818V52.8448C48.0818 52.5087 47.9138 52.3407 47.5776 52.3407H43.4668C43.1307 52.3407 42.9626 52.5087 42.9626 52.8448V54.5125Z" fill="#2B3328"/>
<path d="M59.2097 60.8339V53.2327C59.2097 48.8891 61.3815 46.7173 65.725 46.7173H72.7445L75.4592 48.734V52.3407H66.1904C65.8543 52.3407 65.6863 52.5087 65.6863 52.8448V61.2217C65.6863 61.5578 65.8543 61.7259 66.1904 61.7259H75.4592V65.3325L72.7445 67.3492H65.725C61.3815 67.3492 59.2097 65.1774 59.2097 60.8339Z" fill="#2B3328"/>
<path d="M79.8955 67.3492V38.6508H86.372V46.7173H91.4524C95.796 46.7173 97.9678 48.8891 97.9678 53.2327V67.3492H91.4912V52.8448C91.4912 52.5087 91.3232 52.3407 90.9871 52.3407H86.372V67.3492H79.8955Z" fill="#2B3328"/>
<path d="M112.778 67.3492V40.5898H119.526V67.3492H112.778Z" fill="#2B3328"/>
<path d="M125.191 67.3492V46.7173H136.748C141.092 46.7173 143.264 48.8891 143.264 53.2327V67.3492H136.787V52.8448C136.787 52.5087 136.619 52.3407 136.283 52.3407H131.668V67.3492H125.191Z" fill="#2B3328"/>
<path d="M148.059 60.8339V53.2327C148.059 48.8891 150.231 46.7173 154.574 46.7173H159.655V38.6508H166.131V67.3492H154.574C150.231 67.3492 148.059 65.1774 148.059 60.8339ZM154.536 61.2217C154.536 61.5578 154.704 61.7259 155.04 61.7259H159.655V52.3407H155.04C154.704 52.3407 154.536 52.5087 154.536 52.8448V61.2217Z" fill="#2B3328"/>
<path d="M171.086 60.8339V53.2327C171.086 48.8891 173.258 46.7173 177.601 46.7173H182.643C186.986 46.7173 189.158 48.8891 189.158 53.2327V59.3989H177.562V61.2217C177.562 61.5578 177.73 61.7259 178.066 61.7259H188.382V65.3325L185.668 67.3492H177.601C173.258 67.3492 171.086 65.1774 171.086 60.8339ZM177.562 54.5125H182.681V52.8448C182.681 52.5087 182.513 52.3407 182.177 52.3407H178.066C177.73 52.3407 177.562 52.5087 177.562 52.8448V54.5125Z" fill="#2B3328"/>
<path d="M192.53 66.3021L199.006 56.9557L192.685 47.7644L193.189 46.7173H199.161L202.613 52.0692L206.064 46.7173H212.037L212.541 47.7644L206.22 56.9557L212.696 66.3021L212.192 67.3492H206.22L202.613 61.881L199.006 67.3492H193.034L192.53 66.3021Z" fill="#2B3328"/>
<path d="M1.81104 67.3492V40.5898H9.64493L16.4705 55.1717L23.2961 40.5898H31.13V67.3492H24.382V52.9224L19.1852 64.0528H13.7558L8.55905 52.9224V67.3492H1.81104Z" stroke="#899D82" stroke-opacity="0.4" stroke-width="2"/>
<path d="M36.4861 60.8339V53.2327C36.4861 48.8891 38.6579 46.7173 43.0014 46.7173H48.043C52.3866 46.7173 54.5584 48.8891 54.5584 53.2327V59.3989H42.9626V61.2217C42.9626 61.5578 43.1307 61.7259 43.4668 61.7259H53.7827V65.3325L51.068 67.3492H43.0014C38.6579 67.3492 36.4861 65.1774 36.4861 60.8339ZM42.9626 54.5125H48.0818V52.8448C48.0818 52.5087 47.9138 52.3407 47.5776 52.3407H43.4668C43.1307 52.3407 42.9626 52.5087 42.9626 52.8448V54.5125Z" stroke="#899D82" stroke-opacity="0.4" stroke-width="2"/>
<path d="M59.2097 60.8339V53.2327C59.2097 48.8891 61.3815 46.7173 65.725 46.7173H72.7445L75.4592 48.734V52.3407H66.1904C65.8543 52.3407 65.6863 52.5087 65.6863 52.8448V61.2217C65.6863 61.5578 65.8543 61.7259 66.1904 61.7259H75.4592V65.3325L72.7445 67.3492H65.725C61.3815 67.3492 59.2097 65.1774 59.2097 60.8339Z" stroke="#899D82" stroke-opacity="0.4" stroke-width="2"/>
<path d="M79.8955 67.3492V38.6508H86.372V46.7173H91.4524C95.796 46.7173 97.9678 48.8891 97.9678 53.2327V67.3492H91.4912V52.8448C91.4912 52.5087 91.3232 52.3407 90.9871 52.3407H86.372V67.3492H79.8955Z" stroke="#899D82" stroke-opacity="0.4" stroke-width="2"/>
<path d="M112.778 67.3492V40.5898H119.526V67.3492H112.778Z" stroke="#899D82" stroke-opacity="0.4" stroke-width="2"/>
<path d="M125.191 67.3492V46.7173H136.748C141.092 46.7173 143.264 48.8891 143.264 53.2327V67.3492H136.787V52.8448C136.787 52.5087 136.619 52.3407 136.283 52.3407H131.668V67.3492H125.191Z" stroke="#899D82" stroke-opacity="0.4" stroke-width="2"/>
<path d="M148.059 60.8339V53.2327C148.059 48.8891 150.231 46.7173 154.574 46.7173H159.655V38.6508H166.131V67.3492H154.574C150.231 67.3492 148.059 65.1774 148.059 60.8339ZM154.536 61.2217C154.536 61.5578 154.704 61.7259 155.04 61.7259H159.655V52.3407H155.04C154.704 52.3407 154.536 52.5087 154.536 52.8448V61.2217Z" stroke="#899D82" stroke-opacity="0.4" stroke-width="2"/>
<path d="M171.086 60.8339V53.2327C171.086 48.8891 173.258 46.7173 177.601 46.7173H182.643C186.986 46.7173 189.158 48.8891 189.158 53.2327V59.3989H177.562V61.2217C177.562 61.5578 177.73 61.7259 178.066 61.7259H188.382V65.3325L185.668 67.3492H177.601C173.258 67.3492 171.086 65.1774 171.086 60.8339ZM177.562 54.5125H182.681V52.8448C182.681 52.5087 182.513 52.3407 182.177 52.3407H178.066C177.73 52.3407 177.562 52.5087 177.562 52.8448V54.5125Z" stroke="#899D82" stroke-opacity="0.4" stroke-width="2"/>
<path d="M192.53 66.3021L199.006 56.9557L192.685 47.7644L193.189 46.7173H199.161L202.613 52.0692L206.064 46.7173H212.037L212.541 47.7644L206.22 56.9557L212.696 66.3021L212.192 67.3492H206.22L202.613 61.881L199.006 67.3492H193.034L192.53 66.3021Z" stroke="#899D82" stroke-opacity="0.4" stroke-width="2"/>
<path d="M8.4532 64.7456L8.9532 64.7456L8.9532 63.7456L8.4532 63.7456L8.4532 64.7456ZM1.63574 64.7456L8.4532 64.7456L8.4532 63.7456L1.63574 63.7456L1.63574 64.7456Z" fill="#899D82" fill-opacity="0.5"/>
<path d="M31.0341 64.7481L31.5341 64.748L31.5341 63.748L31.0341 63.7481L31.0341 64.7481ZM24.1973 64.7483L31.0341 64.7481L31.0341 63.7481L24.1972 63.7483L24.1973 64.7483Z" fill="#899D82" fill-opacity="0.5"/>
<path d="M36.9917 64.2454H54.1177" stroke="#899D82" stroke-opacity="0.5" stroke-linecap="round"/>
<path d="M59.5493 64.2454L75.7759 64.2454" stroke="#899D82" stroke-opacity="0.5" stroke-linecap="round"/>
<path d="M86.2597 64.7454L86.7597 64.7454L86.7597 63.7454L86.2597 63.7454L86.2597 64.7454ZM79.7461 64.7454L86.2597 64.7454L86.2597 63.7454L79.7461 63.7454L79.7461 64.7454Z" fill="#899D82" fill-opacity="0.5"/>
<path d="M97.87 64.7454L98.37 64.7454L98.37 63.7454L97.87 63.7454L97.87 64.7454ZM91.3301 64.7454L97.87 64.7454L97.87 63.7454L91.3301 63.7454L91.3301 64.7454Z" fill="#899D82" fill-opacity="0.5"/>
<path d="M119.419 64.7454L119.919 64.7454L119.919 63.7454L119.419 63.7454L119.419 64.7454ZM112.597 64.7454L119.419 64.7454L119.419 63.7454L112.597 63.7454L112.597 64.7454Z" fill="#899D82" fill-opacity="0.5"/>
<path d="M131.581 64.7454L132.081 64.7454L132.081 63.7454L131.581 63.7454L131.581 64.7454ZM125.028 64.7454L131.581 64.7454L131.581 63.7454L125.028 63.7454L125.028 64.7454Z" fill="#899D82" fill-opacity="0.5"/>
<path d="M143.181 64.7454L143.681 64.7454L143.681 63.7454L143.181 63.7454L143.181 64.7454ZM136.616 64.7454L143.181 64.7454L143.181 63.7454L136.616 63.7454L136.616 64.7454Z" fill="#899D82" fill-opacity="0.5"/>
<path d="M148.259 63.7454C147.983 63.7454 147.759 63.9692 147.759 64.2454C147.759 64.5215 147.983 64.7454 148.259 64.7454L148.259 63.7454ZM166.024 64.7454L166.524 64.7454L166.524 63.7454L166.024 63.7454L166.024 64.7454ZM148.259 64.7454L166.024 64.7454L166.024 63.7454L148.259 63.7454L148.259 64.7454Z" fill="#899D82" fill-opacity="0.5"/>
<path d="M171.405 64.2454L188.669 64.2454" stroke="#899D82" stroke-opacity="0.5" stroke-linecap="round"/>
<path d="M193.479 64.2454L201.62 64.2454" stroke="#899D82" stroke-opacity="0.5" stroke-linecap="round"/>
<path d="M203.602 64.2454H211.746" stroke="#899D82" stroke-opacity="0.5" stroke-linecap="round"/>
</svg>
