<svg width="1135" height="157" viewBox="0 0 1135 157" fill="none" xmlns="http://www.w3.org/2000/svg">
<path d="M1.94482 155.46V11.94H43.9608L80.5688 90.148L117.177 11.94H159.193V155.46H123.001V78.084L95.1288 137.78H66.0088L38.1368 78.084V155.46H1.94482Z" fill="#2B3328"/>
<path d="M187.92 120.516V79.748C187.92 56.452 199.568 44.804 222.864 44.804H249.904C273.2 44.804 284.848 56.452 284.848 79.748V112.82H222.656V122.596C222.656 124.399 223.557 125.3 225.36 125.3H280.688V144.644L266.128 155.46H222.864C199.568 155.46 187.92 143.812 187.92 120.516ZM222.656 86.612H250.112V77.668C250.112 75.8653 249.21 74.964 247.408 74.964H225.36C223.557 74.964 222.656 75.8653 222.656 77.668V86.612Z" fill="#2B3328"/>
<path d="M309.795 120.516V79.748C309.795 56.452 321.443 44.804 344.739 44.804H382.387L396.947 55.62V74.964H347.235C345.432 74.964 344.531 75.8653 344.531 77.668V122.596C344.531 124.399 345.432 125.3 347.235 125.3H396.947V144.644L382.387 155.46H344.739C321.443 155.46 309.795 143.812 309.795 120.516Z" fill="#2B3328"/>
<path d="M420.74 155.46V1.54001H455.476V44.804H482.724C506.02 44.804 517.668 56.452 517.668 79.748V155.46H482.932V77.668C482.932 75.8653 482.03 74.964 480.228 74.964H455.476V155.46H420.74Z" fill="#2B3328"/>
<path d="M597.101 155.46V11.94H633.293V155.46H597.101Z" fill="#2B3328"/>
<path d="M663.677 155.46V44.804H725.661C748.957 44.804 760.605 56.452 760.605 79.748V155.46H725.869V77.668C725.869 75.8653 724.968 74.964 723.165 74.964H698.413V155.46H663.677Z" fill="#2B3328"/>
<path d="M786.326 120.516V79.748C786.326 56.452 797.974 44.804 821.27 44.804H848.518V1.54001H883.254V155.46H821.27C797.974 155.46 786.326 143.812 786.326 120.516ZM821.062 122.596C821.062 124.399 821.963 125.3 823.766 125.3H848.518V74.964H823.766C821.963 74.964 821.062 75.8653 821.062 77.668V122.596Z" fill="#2B3328"/>
<path d="M909.826 120.516V79.748C909.826 56.452 921.474 44.804 944.77 44.804H971.81C995.106 44.804 1006.75 56.452 1006.75 79.748V112.82H944.562V122.596C944.562 124.399 945.463 125.3 947.266 125.3H1002.59V144.644L988.034 155.46H944.77C921.474 155.46 909.826 143.812 909.826 120.516ZM944.562 86.612H972.018V77.668C972.018 75.8653 971.117 74.964 969.314 74.964H947.266C945.463 74.964 944.562 75.8653 944.562 77.668V86.612Z" fill="#2B3328"/>
<path d="M1024.84 149.844L1059.57 99.716L1025.67 50.42L1028.37 44.804H1060.4L1078.92 73.508L1097.43 44.804H1129.46L1132.16 50.42L1098.26 99.716L1133 149.844L1130.29 155.46H1098.26L1078.92 126.132L1059.57 155.46H1027.54L1024.84 149.844Z" fill="#2B3328"/>
<path d="M1.94482 155.46V11.94H43.9608L80.5688 90.148L117.177 11.94H159.193V155.46H123.001V78.084L95.1288 137.78H66.0088L38.1368 78.084V155.46H1.94482Z" stroke="#899D82" stroke-opacity="0.4" stroke-width="2"/>
<path d="M187.92 120.516V79.748C187.92 56.452 199.568 44.804 222.864 44.804H249.904C273.2 44.804 284.848 56.452 284.848 79.748V112.82H222.656V122.596C222.656 124.399 223.557 125.3 225.36 125.3H280.688V144.644L266.128 155.46H222.864C199.568 155.46 187.92 143.812 187.92 120.516ZM222.656 86.612H250.112V77.668C250.112 75.8653 249.21 74.964 247.408 74.964H225.36C223.557 74.964 222.656 75.8653 222.656 77.668V86.612Z" stroke="#899D82" stroke-opacity="0.4" stroke-width="2"/>
<path d="M309.795 120.516V79.748C309.795 56.452 321.443 44.804 344.739 44.804H382.387L396.947 55.62V74.964H347.235C345.432 74.964 344.531 75.8653 344.531 77.668V122.596C344.531 124.399 345.432 125.3 347.235 125.3H396.947V144.644L382.387 155.46H344.739C321.443 155.46 309.795 143.812 309.795 120.516Z" stroke="#899D82" stroke-opacity="0.4" stroke-width="2"/>
<path d="M420.74 155.46V1.54001H455.476V44.804H482.724C506.02 44.804 517.668 56.452 517.668 79.748V155.46H482.932V77.668C482.932 75.8653 482.03 74.964 480.228 74.964H455.476V155.46H420.74Z" stroke="#899D82" stroke-opacity="0.4" stroke-width="2"/>
<path d="M597.101 155.46V11.94H633.293V155.46H597.101Z" stroke="#899D82" stroke-opacity="0.4" stroke-width="2"/>
<path d="M663.677 155.46V44.804H725.661C748.957 44.804 760.605 56.452 760.605 79.748V155.46H725.869V77.668C725.869 75.8653 724.968 74.964 723.165 74.964H698.413V155.46H663.677Z" stroke="#899D82" stroke-opacity="0.4" stroke-width="2"/>
<path d="M786.326 120.516V79.748C786.326 56.452 797.974 44.804 821.27 44.804H848.518V1.54001H883.254V155.46H821.27C797.974 155.46 786.326 143.812 786.326 120.516ZM821.062 122.596C821.062 124.399 821.963 125.3 823.766 125.3H848.518V74.964H823.766C821.963 74.964 821.062 75.8653 821.062 77.668V122.596Z" stroke="#899D82" stroke-opacity="0.4" stroke-width="2"/>
<path d="M909.826 120.516V79.748C909.826 56.452 921.474 44.804 944.77 44.804H971.81C995.106 44.804 1006.75 56.452 1006.75 79.748V112.82H944.562V122.596C944.562 124.399 945.463 125.3 947.266 125.3H1002.59V144.644L988.034 155.46H944.77C921.474 155.46 909.826 143.812 909.826 120.516ZM944.562 86.612H972.018V77.668C972.018 75.8653 971.117 74.964 969.314 74.964H947.266C945.463 74.964 944.562 75.8653 944.562 77.668V86.612Z" stroke="#899D82" stroke-opacity="0.4" stroke-width="2"/>
<path d="M1024.84 149.844L1059.57 99.716L1025.67 50.42L1028.37 44.804H1060.4L1078.92 73.508L1097.43 44.804H1129.46L1132.16 50.42L1098.26 99.716L1133 149.844L1130.29 155.46H1098.26L1078.92 126.132L1059.57 155.46H1027.54L1024.84 149.844Z" stroke="#899D82" stroke-opacity="0.4" stroke-width="2"/>
<path d="M37.5679 151.042L39.0679 151.042L39.0679 148.042L37.5679 148.042L37.5679 151.042ZM1.00342 151.042L37.5679 151.042L37.5679 148.042L1.00342 148.042L1.00342 151.042Z" fill="#899D82" fill-opacity="0.8"/>
<path d="M158.678 151.054L160.178 151.054L160.178 148.054L158.678 148.054L158.678 151.054ZM122.009 151.055L158.678 151.054L158.678 148.054L122.009 148.055L122.009 151.055Z" fill="#899D82" fill-opacity="0.8"/>
<path d="M200.874 149.501L273.296 149.501" stroke="#899D82" stroke-opacity="0.8" stroke-width="3" stroke-linecap="round"/>
<path d="M322.945 149.54H389.444" stroke="#899D82" stroke-opacity="0.8" stroke-width="3" stroke-linecap="round"/>
<path d="M454.872 151.04L456.372 151.04L456.372 148.04L454.872 148.04L454.872 151.04ZM419.937 151.04L454.872 151.04L454.872 148.04L419.938 148.04L419.937 151.04Z" fill="#899D82" fill-opacity="0.8"/>
<path d="M517.142 151.04L518.642 151.04L518.642 148.04L517.142 148.04L517.142 151.04ZM482.066 151.04L517.142 151.04L517.142 148.04L482.066 148.04L482.066 151.04Z" fill="#899D82" fill-opacity="0.8"/>
<path d="M632.719 151.04L634.219 151.04L634.219 148.04L632.719 148.04L632.719 151.04ZM596.128 151.04L632.719 151.04L632.719 148.04L596.128 148.04L596.128 151.04Z" fill="#899D82" fill-opacity="0.8"/>
<path d="M697.945 151.04L699.445 151.04L699.445 148.04L697.945 148.04L697.945 151.04ZM662.801 151.04L697.945 151.04L697.945 148.04L662.801 148.04L662.801 151.04Z" fill="#899D82" fill-opacity="0.8"/>
<path d="M760.163 151.04L761.663 151.04L761.663 148.04L760.163 148.04L760.163 151.04ZM724.951 151.04L760.163 151.04L760.163 148.04L724.951 148.04L724.951 151.04Z" fill="#899D82" fill-opacity="0.8"/>
<path d="M799.409 148.04C798.58 148.04 797.909 148.712 797.909 149.54C797.909 150.368 798.58 151.04 799.409 151.04L799.409 148.04ZM882.678 151.04L884.178 151.04L884.178 148.04L882.678 148.04L882.678 151.04ZM799.409 151.04L882.678 151.04L882.678 148.04L799.409 148.04L799.409 151.04Z" fill="#899D82" fill-opacity="0.8"/>
<path d="M922.959 149.54L994.928 149.54" stroke="#899D82" stroke-opacity="0.8" stroke-width="3" stroke-linecap="round"/>
<path d="M1025.67 149.54L1062.86 149.54" stroke="#899D82" stroke-opacity="0.8" stroke-width="3" stroke-linecap="round"/>
<path d="M1094.94 149.54H1132.13" stroke="#899D82" stroke-opacity="0.8" stroke-width="3" stroke-linecap="round"/>
<path d="M1.00342 140.508L39.0205 140.508" stroke="#899D82" stroke-opacity="0.6" stroke-width="2"/>
<path d="M122.009 140.554L160.122 140.554" stroke="#899D82" stroke-opacity="0.6" stroke-width="2"/>
<path d="M192.139 139.534C191.587 139.534 191.139 139.982 191.139 140.534C191.139 141.087 191.587 141.534 192.139 141.534L192.139 139.534ZM192.139 141.534L281.625 141.534L281.625 139.534L192.139 139.534L192.139 141.534Z" fill="#899D82" fill-opacity="0.6"/>
<path d="M313.43 140.54L397.956 140.54" stroke="#899D82" stroke-opacity="0.6" stroke-width="2"/>
<path d="M419.938 140.54L456.35 140.54" stroke="#899D82" stroke-opacity="0.6" stroke-width="2"/>
<path d="M482.066 140.54L518.687 140.54" stroke="#899D82" stroke-opacity="0.6" stroke-width="2"/>
<path d="M596.128 140.54L634.205 140.54" stroke="#899D82" stroke-opacity="0.6" stroke-width="2"/>
<path d="M662.801 140.54L699.379 140.54" stroke="#899D82" stroke-opacity="0.6" stroke-width="2"/>
<path d="M724.951 140.54L761.545 140.54" stroke="#899D82" stroke-opacity="0.6" stroke-width="2"/>
<path d="M789.945 140.54L884.229 140.54" stroke="#899D82" stroke-opacity="0.6" stroke-width="2"/>
<path d="M914.016 139.54C913.463 139.54 913.016 139.988 913.016 140.54C913.016 141.092 913.463 141.54 914.016 141.54L914.016 139.54ZM914.016 141.54L1003.62 141.54L1003.62 139.54L914.016 139.54L914.016 141.54Z" fill="#899D82" fill-opacity="0.6"/>
<path d="M1031.24 140.54L1069.33 140.54" stroke="#899D82" stroke-opacity="0.6" stroke-width="2" stroke-linecap="round"/>
<path d="M1088.5 140.54L1126.42 140.54" stroke="#899D82" stroke-opacity="0.6" stroke-width="2" stroke-linecap="round"/>
<path d="M1.00342 131.54L39.0205 131.54" stroke="#899D82" stroke-opacity="0.4" stroke-width="2"/>
<path d="M63.1797 131.54L98.0283 131.54" stroke="#899D82" stroke-opacity="0.4" stroke-width="2" stroke-linecap="round"/>
<path d="M122.009 131.538L160.122 131.538" stroke="#899D82" stroke-opacity="0.4" stroke-width="2"/>
<path d="M189.167 130.531L188.167 130.531L188.167 132.531L189.167 132.531L189.167 130.531ZM189.167 132.531L281.625 132.531L281.625 130.531L189.167 130.531L189.167 132.531Z" fill="#899D82" fill-opacity="0.4"/>
<path d="M310.049 131.54L397.956 131.54" stroke="#899D82" stroke-opacity="0.4" stroke-width="2"/>
<path d="M419.691 131.54L456.35 131.54" stroke="#899D82" stroke-opacity="0.4" stroke-width="2"/>
<path d="M482.066 131.54L518.687 131.54" stroke="#899D82" stroke-opacity="0.4" stroke-width="2"/>
<path d="M596.128 131.54L634.205 131.54" stroke="#899D82" stroke-opacity="0.4" stroke-width="2"/>
<path d="M662.801 131.54L699.379 131.54" stroke="#899D82" stroke-opacity="0.4" stroke-width="2"/>
<path d="M724.951 131.54L761.545 131.54" stroke="#899D82" stroke-opacity="0.4" stroke-width="2"/>
<path d="M786.656 131.54L884.229 131.54" stroke="#899D82" stroke-opacity="0.4" stroke-width="2"/>
<path d="M910.127 131.54L1003.62 131.54" stroke="#899D82" stroke-opacity="0.4" stroke-width="2"/>
<path d="M1037.64 131.54L1075.14 131.54" stroke="#899D82" stroke-opacity="0.4" stroke-width="2" stroke-linecap="round"/>
<path d="M1082.52 131.54L1120.27 131.54" stroke="#899D82" stroke-opacity="0.4" stroke-width="2" stroke-linecap="round"/>
</svg>
