<svg width="73" height="101" viewBox="0 0 73 101" fill="none" xmlns="http://www.w3.org/2000/svg">
<path fill-rule="evenodd" clip-rule="evenodd" d="M36.679 0H30.8316L28.7053 2.12632V10.6316L32.958 13.8211H36.679H40.4001L44.6527 10.6316V2.12632L42.5264 0H36.679Z" fill="#D9D9D9"/>
<path fill-rule="evenodd" clip-rule="evenodd" d="M36.6789 14.8843H32.9578L31.3631 17.0106V29.2369H24.9841V37.2106L27.642 39.3369H31.3631V47.3106L34.5526 49.9685H36.6789H38.8052L41.9947 47.3106V39.3369H45.7157L48.3736 37.2106V29.2369H41.9947L41.9885 17.0075L40.3999 14.8843H36.6789Z" fill="#D9D9D9"/>
<path d="M45.5587 11.0007L41.1753 14.2118L42.8191 16.598V28.1264H49.942V21.8363L56.5171 16.3525V10.4656L51.5858 5.11377H45.5587V11.0007Z" fill="#D9D9D9"/>
<path d="M27.5786 11.0007L31.9619 14.2118L30.3182 16.598V28.1264H23.1952V21.8363L16.6201 16.3525V10.4656L21.5514 5.11377H27.5786V11.0007Z" fill="#D9D9D9"/>
<path d="M2.47955e-05 10.2278H15.3418V20.877L10.2279 26.2016V44.3052L12.2734 45.9026V54.9746L4.09116 54.9544L1.5342 51.7596V31.5262L3.06838 29.3963V20.877H2.47955e-05V10.2278Z" fill="#D9D9D9"/>
<path d="M72.8733 10.2278H57.5315V20.877L62.6454 26.2016V44.3052L60.5998 45.9026V54.9746L68.7821 54.9544L71.3391 51.7596V31.5262L69.8049 29.3963V20.877H72.8733V10.2278Z" fill="#D9D9D9"/>
<path d="M48.4341 40.9114H43.6398V57.2513L46.3033 59.3597V62.5222L44.1725 64.1035V83.0788L46.836 86.2414V89.404L44.1725 92.5665V94.6749L39.9109 97.8374V101H59.0881V96.7833L55.3592 93.6207V91.5123L53.7611 89.404V86.2414L57.49 83.0788V69.3744L53.7611 66.2119V60.9409L55.8919 58.8326V44.6011H48.434L48.4341 40.9114Z" fill="#D9D9D9"/>
<path d="M25.3565 40.9114H30.1508V57.2513L27.4872 59.3596V62.5222L29.618 64.1034V83.0788L26.9545 86.2414V89.4039L29.618 92.5665V94.6748L33.8796 97.8374V101H14.7024V96.7833L18.4313 93.6207V91.5123L20.0295 89.4039V86.2414L16.3005 83.0788V69.3744L20.0295 66.2118V60.9409L17.8986 58.8325V44.601H25.3565L25.3565 40.9114Z" fill="#D9D9D9"/>
</svg>
